<svg width="14" height="13" viewBox="0 0 14 13" fill="none" xmlns="http://www.w3.org/2000/svg">
<path d="M13.6069 4.94019C13.584 4.86926 13.5416 4.80619 13.4846 4.75813C13.4276 4.71007 13.3583 4.67894 13.2846 4.66828L9.06058 4.0545L7.17107 0.223283C7.13804 0.156537 7.087 0.100353 7.02374 0.061072C6.96046 0.0217911 6.88748 0.000976563 6.81301 0.000976562C6.73854 0.000976562 6.66555 0.0217911 6.60228 0.061072C6.53901 0.100353 6.48798 0.156537 6.45494 0.223283L4.56543 4.05162L0.34145 4.66539C0.267816 4.67622 0.198669 4.70739 0.141801 4.7554C0.0849324 4.80342 0.0426044 4.86636 0.0195874 4.93714C-0.00342967 5.00792 -0.00622073 5.08373 0.0115288 5.15601C0.0292782 5.22829 0.0668627 5.29418 0.120046 5.34624L3.17643 8.32568L2.45524 12.5334C2.44317 12.6064 2.45163 12.6814 2.47968 12.75C2.50774 12.8185 2.55428 12.8779 2.61412 12.9215C2.67396 12.9651 2.74474 12.9912 2.81857 12.9969C2.89239 13.0027 2.96635 12.9877 3.03219 12.9539L6.81337 10.9697L10.5917 12.956C10.6576 12.99 10.7316 13.0049 10.8055 12.9992C10.8794 12.9934 10.9503 12.9672 11.0101 12.9235C11.07 12.8798 11.1165 12.8203 11.1445 12.7517C11.1725 12.683 11.1808 12.6079 11.1686 12.5348L10.4474 8.32712L13.5045 5.34769C13.5578 5.29602 13.5956 5.23051 13.6137 5.15851C13.6318 5.08652 13.6295 5.01091 13.6069 4.94019Z" fill="#FFB801"/>
</svg>
